<svg xmlns="http://www.w3.org/2000/svg" version="1.1" xmlns:xlink="http://www.w3.org/1999/xlink" xmlns:svgjs="http://svgjs.dev/svgjs" width="1500" height="1500" viewBox="0 0 1500 1500"><rect width="1500" height="1500" fill="#003366"></rect><g transform="matrix(0.6666666666666666,0,0,0.6666666666666666,250.72214833011697,213.7678812415656)"><svg viewBox="0 0 230 247" data-background-color="#003366" preserveAspectRatio="xMidYMid meet" height="1610" width="1500" xmlns="http://www.w3.org/2000/svg" xmlns:xlink="http://www.w3.org/1999/xlink"><g id="tight-bounds" transform="matrix(1,0,0,1,-0.16609411592691004,-0.09999999999999432)"><svg viewBox="0 0 230.33218823185382 247.2" height="247.2" width="230.33218823185382"><g><svg viewBox="0 0 395.52 424.48493521705063" height="247.2" width="230.33218823185382"><g transform="matrix(1,0,0,1,0,276.3245907606459)"><svg viewBox="0 0 395.52 148.16034445640474" height="148.16034445640474" width="395.52"><g id="textblocktransform"><svg viewBox="0 0 395.52 148.16034445640474" height="148.16034445640474" width="395.52" id="textblock"><g><svg viewBox="0 0 395.52 148.16034445640474" height="148.16034445640474" width="395.52"><g transform="matrix(1,0,0,1,0,0)"><svg width="395.52" viewBox="77.78 -39 232.24999999999997 84" height="148.16034445640474" data-palette-color="#ffffff"><svg></svg><svg></svg><g class="wordmark-text-0" data-fill-palette-color="primary" id="text-0"><path transform="translate(76.78,0)" d="M36.05-37.5h25.2c0 2.5 0 5 0 7.5 0 2.5 0 5 0 7.5 0 2.5 0 5 0 7.5 0 2.5 0 5 0 7.5 0 2.5 0 5 0 7.5v0h-19.25c0-3.467 0-6.933 0-10.4 0-3.467 0-6.933 0-10.4v0c0 0 0-0.01 0-0.03 0-0.013-0.007-0.02-0.02-0.02-0.02 0-0.037 0-0.05 0-0.02 0-0.03 0.007-0.03 0.02 0 0.02 0 0.03 0 0.03v0l-4.9 20.8h-12.75c-0.833-3.467-1.65-6.917-2.45-10.35-0.8-3.433-1.617-6.867-2.45-10.3v0c0 0 0-0.01 0-0.03 0-0.013-0.007-0.02-0.02-0.02-0.02 0-0.03 0-0.03 0 0 0-0.007 0-0.02 0-0.02 0-0.03 0.007-0.03 0.02 0 0.02 0 0.03 0 0.03v0c0 3.433 0 6.867 0 10.3 0 3.433 0 6.883 0 10.35v0h-18.25c0-2.5 0-5.01 0-7.53 0-2.513 0-5.03 0-7.55 0-2.513 0-5.03 0-7.55 0-2.513 0-5.02 0-7.52v0c0-1.233 0-2.46 0-3.68 0-1.213 0-2.437 0-3.67v0h26.65c0.5 2.067 0.983 4.123 1.45 6.17 0.467 2.053 0.943 4.113 1.43 6.18 0.48 2.067 0.953 4.133 1.42 6.2v0c0 0.033 0.01 0.057 0.03 0.07 0.013 0.02 0.027 0.02 0.04 0 0.02-0.013 0.03-0.037 0.03-0.07v0zM90.25-39v0c-3.067 0-5.873 0.223-8.42 0.67-2.553 0.453-4.847 1.103-6.88 1.95-2.033 0.853-3.807 1.87-5.32 3.05-1.52 1.187-2.787 2.53-3.8 4.03-1.02 1.5-1.79 3.133-2.31 4.9-0.513 1.767-0.77 3.633-0.77 5.6v0c0 1.5 0.16 2.983 0.48 4.45 0.313 1.467 0.81 2.867 1.49 4.2 0.687 1.333 1.557 2.59 2.61 3.77 1.047 1.187 2.297 2.263 3.75 3.23 1.447 0.967 3.12 1.79 5.02 2.47 1.9 0.687 4.023 1.223 6.37 1.61 2.353 0.38 4.947 0.57 7.78 0.57v0c3.967 0 7.457-0.357 10.47-1.07 3.02-0.72 5.613-1.723 7.78-3.01 2.167-1.28 3.933-2.78 5.3-4.5 1.367-1.713 2.367-3.563 3-5.55 0.633-1.98 0.95-4.037 0.95-6.17v0c0-3.933-1.017-7.417-3.05-10.45-2.033-3.033-5.083-5.417-9.15-7.15-4.067-1.733-9.167-2.6-15.3-2.6zM90.3-23.1v0c1.167 0 2.15 0.133 2.95 0.4 0.8 0.267 1.433 0.607 1.9 1.02 0.467 0.42 0.81 0.88 1.03 1.38 0.213 0.5 0.32 1 0.32 1.5v0c0 0.433-0.067 0.857-0.2 1.27-0.133 0.42-0.357 0.823-0.67 1.21-0.32 0.38-0.72 0.71-1.2 0.99-0.487 0.287-1.073 0.513-1.76 0.68-0.68 0.167-1.47 0.25-2.37 0.25v0c-1.533 0-2.767-0.217-3.7-0.65-0.933-0.433-1.6-0.983-2-1.65-0.4-0.667-0.6-1.35-0.6-2.05v0c0-0.533 0.11-1.06 0.33-1.58 0.213-0.513 0.563-0.98 1.05-1.4 0.48-0.413 1.13-0.747 1.95-1 0.813-0.247 1.803-0.37 2.97-0.37zM145.55-37.5h21.6c-0.733 2.5-1.473 5-2.22 7.5-0.753 2.5-1.503 5-2.25 7.5-0.753 2.5-1.503 5-2.25 7.5-0.753 2.5-1.503 5-2.25 7.5-0.753 2.5-1.513 5-2.28 7.5v0h-28.95c-1.233-4.167-2.477-8.333-3.73-12.5-1.247-4.167-2.487-8.333-3.72-12.5-1.233-4.167-2.483-8.333-3.75-12.5v0h22.3c0.2 1.3 0.41 2.59 0.63 3.87 0.213 1.287 0.42 2.58 0.62 3.88 0.2 1.3 0.4 2.6 0.6 3.9 0.2 1.3 0.4 2.6 0.6 3.9 0.2 1.3 0.41 2.593 0.63 3.88 0.213 1.28 0.42 2.57 0.62 3.87v0c0.033 0 0.05 0 0.05 0 0 0 0.007 0 0.02 0 0.02 0 0.03 0 0.03 0v0c0.167-1.1 0.343-2.21 0.53-3.33 0.18-1.113 0.353-2.22 0.52-3.32 0.167-1.1 0.343-2.21 0.53-3.33 0.18-1.113 0.36-2.23 0.54-3.35 0.187-1.113 0.363-2.22 0.53-3.32 0.167-1.1 0.343-2.21 0.53-3.33 0.18-1.113 0.353-2.22 0.52-3.32zM188.9 0h-20.75c0-2.4 0-4.8 0-7.2 0-2.4 0-4.8 0-7.2 0-2.4 0-4.8 0-7.2 0-2.4 0-4.8 0-7.2v0c0-1.467 0-2.927 0-4.38 0-1.447 0-2.887 0-4.32v0h20.75c0 3.233 0 6.457 0 9.67 0 3.22 0 6.447 0 9.68v0c0 2 0 4.007 0 6.02 0 2.02 0 4.037 0 6.05 0 2.02 0 4.047 0 6.08zM232.95-37.5v12.6h-21.75c-0.033 0-0.05 0-0.05 0v0 0 2.75c0 0.033 0 0.057 0 0.07 0 0.02 0 0.03 0 0.03 0 0 0.01 0 0.03 0 0.013 0 0.02 0 0.02 0v0h21v7.05h-21c0 0-0.007 0-0.02 0-0.02 0-0.03 0.007-0.03 0.02 0 0.02 0 0.047 0 0.08v0 2.8 0 0c0 0 0.01 0 0.03 0 0.013 0 0.02 0 0.02 0v0h22.05v12.1h-42.35c0-1.967 0-3.943 0-5.93 0-1.98 0-3.953 0-5.92 0-1.967 0-3.943 0-5.93 0-1.98 0-3.963 0-5.95 0-1.98 0-3.953 0-5.92v0c0-1.3 0-2.61 0-3.93 0-1.313 0-2.62 0-3.92v0z" fill="#ffffff" fill-rule="nonzero" stroke="none" stroke-width="1" stroke-linecap="butt" stroke-linejoin="miter" stroke-miterlimit="10" stroke-dasharray="" stroke-dashoffset="0" font-family="none" font-weight="none" font-size="none" text-anchor="none" style="mix-blend-mode: normal" data-fill-palette-color="primary" opacity="1"></path><path transform="translate(96.45,43.5)" d="M1-37.5v0h39.35c2.233 0 4.083 0.423 5.55 1.27 1.467 0.853 2.577 1.947 3.33 3.28 0.747 1.333 1.12 2.733 1.12 4.2v0c0 1.467-0.383 2.89-1.15 4.27-0.767 1.387-1.923 2.513-3.47 3.38-1.553 0.867-3.497 1.3-5.83 1.3v0c0 0-0.007 0-0.02 0-0.02 0-0.02 0.007 0 0.02 0.013 0.02 0.02 0.03 0.02 0.03v0c2.7 0 4.933 0.483 6.7 1.45 1.767 0.967 3.083 2.2 3.95 3.7 0.867 1.5 1.3 3.083 1.3 4.75v0c0 1.233-0.24 2.433-0.72 3.6-0.487 1.167-1.213 2.223-2.18 3.17-0.967 0.953-2.167 1.703-3.6 2.25-1.433 0.553-3.1 0.83-5 0.83v0h-39.35c0-2.267 0-4.527 0-6.78 0-2.247 0-4.503 0-6.77 0-2.267 0-4.527 0-6.78 0-2.247 0-4.503 0-6.77v0c0-1.733 0-3.467 0-5.2 0-1.733 0-3.467 0-5.2zM20.7-17.8v0c0 0.367 0 0.733 0 1.1 0 0.367 0 0.733 0 1.1v0c0 0.267 0 0.523 0 0.77 0 0.253 0 0.497 0 0.73 0 0.233 0 0.467 0 0.7v0c0 0.033 0 0.05 0 0.05 0 0 0.017 0 0.05 0v0h7.1c0.9 0 1.577-0.233 2.03-0.7 0.447-0.467 0.67-1 0.67-1.6v0c0-0.3-0.05-0.577-0.15-0.83-0.1-0.247-0.24-0.48-0.42-0.7-0.187-0.213-0.42-0.38-0.7-0.5-0.287-0.113-0.613-0.17-0.98-0.17v0h-7.55c0 0-0.007 0.01-0.02 0.03-0.02 0.013-0.03 0.02-0.03 0.02zM28.05-24.85h-7.3c-0.033 0-0.05 0.007-0.05 0.02 0 0.02 0 0.03 0 0.03v0c0 0.2 0 0.423 0 0.67 0 0.253 0 0.503 0 0.75 0 0.253 0 0.513 0 0.78v0c0 0.367 0 0.74 0 1.12 0 0.387 0 0.747 0 1.08v0c0 0.033 0 0.05 0 0.05 0 0 0.017 0 0.05 0v0h6.85c0.6 0 1.1-0.11 1.5-0.33 0.4-0.213 0.7-0.497 0.9-0.85 0.2-0.347 0.3-0.72 0.3-1.12v0c0-0.567-0.19-1.077-0.57-1.53-0.387-0.447-0.947-0.67-1.68-0.67zM74.05-37.5h-20.75c0 1.667 0 3.373 0 5.12 0 1.753 0 3.513 0 5.28 0 1.767 0 3.533 0 5.3v0c0 1.333 0 2.673 0 4.02 0 1.353 0 2.663 0 3.93v0c0 2.033 0.45 3.873 1.35 5.52 0.9 1.653 2.143 3.087 3.73 4.3 1.58 1.22 3.413 2.247 5.5 3.08 2.08 0.833 4.313 1.45 6.7 1.85 2.38 0.4 4.787 0.6 7.22 0.6v0c3.067 0 6.06-0.317 8.98-0.95 2.913-0.633 5.537-1.593 7.87-2.88 2.333-1.28 4.193-2.88 5.58-4.8 1.38-1.913 2.07-4.153 2.07-6.72v0c0-2.533 0-5.143 0-7.83 0-2.68 0-5.353 0-8.02 0-2.667 0-5.267 0-7.8v0h-20.75c0 1.833 0 3.6 0 5.3 0 1.7 0 3.35 0 4.95 0 1.6 0 3.183 0 4.75 0 1.567 0 3.15 0 4.75v0c0 0.967-0.383 1.7-1.15 2.2-0.767 0.5-1.633 0.75-2.6 0.75v0c-0.467 0-0.923-0.067-1.37-0.2-0.453-0.133-0.853-0.327-1.2-0.58-0.353-0.247-0.637-0.553-0.85-0.92-0.22-0.367-0.33-0.8-0.33-1.3v0c0-3.167 0-6.333 0-9.5 0-3.167 0-6.567 0-10.2zM104.1-37.5h44.7l-15.8 22.5c0 0 0 0.007 0 0.02 0 0.02 0.01 0.03 0.03 0.03 0.013 0 0.02 0 0.02 0v0h14.55v14.95h-44.95l17.35-22.55c0 0 0-0.01 0-0.03 0-0.013 0-0.02 0-0.02 0 0-0.017 0-0.05 0v0h-15.85zM149.2-37.5h44.7l-15.8 22.5c0 0 0 0.007 0 0.02 0 0.02 0.01 0.03 0.03 0.03 0.013 0 0.02 0 0.02 0v0h14.55v14.95h-44.95l17.35-22.55c0 0 0-0.01 0-0.03 0-0.013 0-0.02 0-0.02 0 0-0.017 0-0.05 0v0h-15.85z" fill="#ffffff" fill-rule="nonzero" stroke="none" stroke-width="1" stroke-linecap="butt" stroke-linejoin="miter" stroke-miterlimit="10" stroke-dasharray="" stroke-dashoffset="0" font-family="none" font-weight="none" font-size="none" text-anchor="none" style="mix-blend-mode: normal" data-fill-palette-color="primary" opacity="1"></path></g></svg></g></svg></g></svg></g></svg></g><g transform="matrix(1,0,0,1,67.73892651539288,0)"><svg viewBox="0 0 260.04214696921423 260.04214696921423" height="260.04214696921423" width="260.04214696921423"><g><svg></svg></g><g id="icon-0"><svg viewBox="0 0 260.04214696921423 260.04214696921423" height="260.04214696921423" width="260.04214696921423"><g><path transform="scale(2.60042,2.60042)" d="M30 100c-16.569 0-30-13.431-30-30v-40c0-16.569 13.431-30 30-30h40c16.569 0 30 13.431 30 30v40c0 16.569-13.431 30-30 30z" fill="#ff9966" fill-rule="nonzero" stroke="none" stroke-width="1" stroke-linecap="butt" stroke-linejoin="miter" stroke-miterlimit="10" stroke-dasharray="" stroke-dashoffset="0" font-family="none" font-weight="none" font-size="none" text-anchor="none" style="mix-blend-mode: normal" data-fill-palette-color="accent"></path></g><g transform="matrix(1,0,0,1,52.008429393842846,52.008429393842846)"><svg viewBox="0 0 156.02528818152854 156.02528818152854" height="156.02528818152854" width="156.02528818152854"><g><svg xmlns="http://www.w3.org/2000/svg" xmlns:xlink="http://www.w3.org/1999/xlink" version="1.1" x="0" y="0" viewBox="0 0 26 26" style="enable-background:new 0 0 26 26;" xml:space="preserve" height="156.02528818152854" width="156.02528818152854" class="icon-cg-0" data-fill-palette-color="quaternary" id="cg-0"><g fill="#003366" data-fill-palette-color="quaternary"><path d="M13 0C5.82 0 0 5.82 0 13s5.82 13 13 13c7.18 0 13-5.82 13-13S20.18 0 13 0zM11.248 20.07c-1.171 1.172-3.155 1.087-5.303-1.06C3.798 16.862 4.178 13 4.178 13s3.862-0.38 6.01 1.768C12.335 16.915 12.42 18.899 11.248 20.07zM10 9.5C10 6.463 13 4 13 4s3 2.463 3 5.5S14.656 14 13 14C11.344 14 10 12.537 10 9.5zM20.055 19.01c-2.148 2.147-4.132 2.232-5.303 1.06-1.172-1.171-1.087-3.155 1.06-5.303C17.96 12.62 21.822 13 21.822 13S22.202 16.862 20.055 19.01z" fill="#003366" data-fill-palette-color="quaternary"></path></g></svg></g></svg></g></svg></g></svg></g><g></g></svg></g><defs></defs></svg><rect width="230.33218823185382" height="247.2" fill="none" stroke="none" visibility="hidden"></rect></g></svg></g></svg>